<svg width="303.75mm" height="91.95mm" viewBox="0 0 303.75 91.95" xmlns="http://www.w3.org/2000/svg"><g id="svgGroup" stroke-linecap="round" fill-rule="evenodd" font-size="9pt" stroke="#000" stroke-width="0.25mm" fill="none" style="stroke:#000;stroke-width:0.25mm;fill:none"><path d="M 0 14.95 A 0.5 0.5 0 0 0 0.5 15.45 L 13.5 15.45 A 0.5 0.5 0 0 0 14 14.95 L 14 1.95 A 0.5 0.5 0 0 0 13.5 1.45 L 0.5 1.45 A 0.5 0.5 0 0 0 0 1.95 L 0 14.95 Z M 19 14.95 A 0.5 0.5 0 0 0 19.5 15.45 L 32.5 15.45 A 0.5 0.5 0 0 0 33 14.95 L 33 1.95 A 0.5 0.5 0 0 0 32.5 1.45 L 19.5 1.45 A 0.5 0.5 0 0 0 19 1.95 L 19 14.95 Z M 38 14.95 A 0.5 0.5 0 0 0 38.5 15.45 L 51.5 15.45 A 0.5 0.5 0 0 0 52 14.95 L 52 1.95 A 0.5 0.5 0 0 0 51.5 1.45 L 38.5 1.45 A 0.5 0.5 0 0 0 38 1.95 L 38 14.95 Z M 57 14.95 A 0.5 0.5 0 0 0 57.5 15.45 L 70.5 15.45 A 0.5 0.5 0 0 0 71 14.95 L 71 1.95 A 0.5 0.5 0 0 0 70.5 1.45 L 57.5 1.45 A 0.5 0.5 0 0 0 57 1.95 L 57 14.95 Z M 76 14.95 A 0.5 0.5 0 0 0 76.5 15.45 L 89.5 15.45 A 0.5 0.5 0 0 0 90 14.95 L 90 1.95 A 0.5 0.5 0 0 0 89.5 1.45 L 76.5 1.45 A 0.5 0.5 0 0 0 76 1.95 L 76 14.95 Z M 95 14.95 A 0.5 0.5 0 0 0 95.5 15.45 L 108.5 15.45 A 0.5 0.5 0 0 0 109 14.95 L 109 1.95 A 0.5 0.5 0 0 0 108.5 1.45 L 95.5 1.45 A 0.5 0.5 0 0 0 95 1.95 L 95 14.95 Z M 114 14.95 A 0.5 0.5 0 0 0 114.5 15.45 L 127.5 15.45 A 0.5 0.5 0 0 0 128 14.95 L 128 1.95 A 0.5 0.5 0 0 0 127.5 1.45 L 114.5 1.45 A 0.5 0.5 0 0 0 114 1.95 L 114 14.95 Z M 133 14.95 A 0.5 0.5 0 0 0 133.5 15.45 L 146.5 15.45 A 0.5 0.5 0 0 0 147 14.95 L 147 1.95 A 0.5 0.5 0 0 0 146.5 1.45 L 133.5 1.45 A 0.5 0.5 0 0 0 133 1.95 L 133 14.95 Z M 152 14.95 A 0.5 0.5 0 0 0 152.5 15.45 L 165.5 15.45 A 0.5 0.5 0 0 0 166 14.95 L 166 1.95 A 0.5 0.5 0 0 0 165.5 1.45 L 152.5 1.45 A 0.5 0.5 0 0 0 152 1.95 L 152 14.95 Z M 171 14.95 A 0.5 0.5 0 0 0 171.5 15.45 L 184.5 15.45 A 0.5 0.5 0 0 0 185 14.95 L 185 1.95 A 0.5 0.5 0 0 0 184.5 1.45 L 171.5 1.45 A 0.5 0.5 0 0 0 171 1.95 L 171 14.95 Z M 190 14.95 A 0.5 0.5 0 0 0 190.5 15.45 L 203.5 15.45 A 0.5 0.5 0 0 0 204 14.95 L 204 1.95 A 0.5 0.5 0 0 0 203.5 1.45 L 190.5 1.45 A 0.5 0.5 0 0 0 190 1.95 L 190 14.95 Z M 209 14.95 A 0.5 0.5 0 0 0 209.5 15.45 L 222.5 15.45 A 0.5 0.5 0 0 0 223 14.95 L 223 1.95 A 0.5 0.5 0 0 0 222.5 1.45 L 209.5 1.45 A 0.5 0.5 0 0 0 209 1.95 L 209 14.95 Z M 228 14.95 A 0.5 0.5 0 0 0 228.5 15.45 L 241.5 15.45 A 0.5 0.5 0 0 0 242 14.95 L 242 1.95 A 0.5 0.5 0 0 0 241.5 1.45 L 228.5 1.45 A 0.5 0.5 0 0 0 228 1.95 L 228 14.95 Z M 256.5 14.95 A 0.5 0.5 0 0 0 257 15.45 L 270 15.45 A 0.5 0.5 0 0 0 270.5 14.95 L 270.5 1.95 A 0.5 0.5 0 0 0 270 1.45 L 257 1.45 A 0.5 0.5 0 0 0 256.5 1.95 L 256.5 14.95 Z M 289.75 14.95 A 0.5 0.5 0 0 0 290.25 15.45 L 303.25 15.45 A 0.5 0.5 0 0 0 303.75 14.95 L 303.75 1.95 A 0.5 0.5 0 0 0 303.25 1.45 L 290.25 1.45 A 0.5 0.5 0 0 0 289.75 1.95 L 289.75 14.95 Z M 4.75 32.95 A 0.5 0.5 0 0 0 5.25 33.45 L 18.25 33.45 A 0.5 0.5 0 0 0 18.75 32.95 L 18.75 19.95 A 0.5 0.5 0 0 0 18.25 19.45 L 5.25 19.45 A 0.5 0.5 0 0 0 4.75 19.95 L 4.75 32.95 Z M 28.5 32.95 A 0.5 0.5 0 0 0 29 33.45 L 42 33.45 A 0.5 0.5 0 0 0 42.5 32.95 L 42.5 19.95 A 0.5 0.5 0 0 0 42 19.45 L 29 19.45 A 0.5 0.5 0 0 0 28.5 19.95 L 28.5 32.95 Z M 47.5 32.95 A 0.5 0.5 0 0 0 48 33.45 L 61 33.45 A 0.5 0.5 0 0 0 61.5 32.95 L 61.5 19.95 A 0.5 0.5 0 0 0 61 19.45 L 48 19.45 A 0.5 0.5 0 0 0 47.5 19.95 L 47.5 32.95 Z M 66.5 32.95 A 0.5 0.5 0 0 0 67 33.45 L 80 33.45 A 0.5 0.5 0 0 0 80.5 32.95 L 80.5 19.95 A 0.5 0.5 0 0 0 80 19.45 L 67 19.45 A 0.5 0.5 0 0 0 66.5 19.95 L 66.5 32.95 Z M 85.5 32.95 A 0.5 0.5 0 0 0 86 33.45 L 99 33.45 A 0.5 0.5 0 0 0 99.5 32.95 L 99.5 19.95 A 0.5 0.5 0 0 0 99 19.45 L 86 19.45 A 0.5 0.5 0 0 0 85.5 19.95 L 85.5 32.95 Z M 104.5 32.95 A 0.5 0.5 0 0 0 105 33.45 L 118 33.45 A 0.5 0.5 0 0 0 118.5 32.95 L 118.5 19.95 A 0.5 0.5 0 0 0 118 19.45 L 105 19.45 A 0.5 0.5 0 0 0 104.5 19.95 L 104.5 32.95 Z M 123.5 32.95 A 0.5 0.5 0 0 0 124 33.45 L 137 33.45 A 0.5 0.5 0 0 0 137.5 32.95 L 137.5 19.95 A 0.5 0.5 0 0 0 137 19.45 L 124 19.45 A 0.5 0.5 0 0 0 123.5 19.95 L 123.5 32.95 Z M 142.5 32.95 A 0.5 0.5 0 0 0 143 33.45 L 156 33.45 A 0.5 0.5 0 0 0 156.5 32.95 L 156.5 19.95 A 0.5 0.5 0 0 0 156 19.45 L 143 19.45 A 0.5 0.5 0 0 0 142.5 19.95 L 142.5 32.95 Z M 161.5 32.95 A 0.5 0.5 0 0 0 162 33.45 L 175 33.45 A 0.5 0.5 0 0 0 175.5 32.95 L 175.5 19.95 A 0.5 0.5 0 0 0 175 19.45 L 162 19.45 A 0.5 0.5 0 0 0 161.5 19.95 L 161.5 32.95 Z M 180.5 32.95 A 0.5 0.5 0 0 0 181 33.45 L 194 33.45 A 0.5 0.5 0 0 0 194.5 32.95 L 194.5 19.95 A 0.5 0.5 0 0 0 194 19.45 L 181 19.45 A 0.5 0.5 0 0 0 180.5 19.95 L 180.5 32.95 Z M 199.5 32.95 A 0.5 0.5 0 0 0 200 33.45 L 213 33.45 A 0.5 0.5 0 0 0 213.5 32.95 L 213.5 19.95 A 0.5 0.5 0 0 0 213 19.45 L 200 19.45 A 0.5 0.5 0 0 0 199.5 19.95 L 199.5 32.95 Z M 218.5 32.95 A 0.5 0.5 0 0 0 219 33.45 L 232 33.45 A 0.5 0.5 0 0 0 232.5 32.95 L 232.5 19.95 A 0.5 0.5 0 0 0 232 19.45 L 219 19.45 A 0.5 0.5 0 0 0 218.5 19.95 L 218.5 32.95 Z M 237.5 32.95 A 0.5 0.5 0 0 0 238 33.45 L 251 33.45 A 0.5 0.5 0 0 0 251.5 32.95 L 251.5 19.95 A 0.5 0.5 0 0 0 251 19.45 L 238 19.45 A 0.5 0.5 0 0 0 237.5 19.95 L 237.5 32.95 Z M 261.25 32.95 A 0.5 0.5 0 0 0 261.75 33.45 L 274.75 33.45 A 0.5 0.5 0 0 0 275.25 32.95 L 275.25 19.95 A 0.5 0.5 0 0 0 274.75 19.45 L 261.75 19.45 A 0.5 0.5 0 0 0 261.25 19.95 L 261.25 32.95 Z M 289.75 32.95 A 0.5 0.5 0 0 0 290.25 33.45 L 303.25 33.45 A 0.5 0.5 0 0 0 303.75 32.95 L 303.75 19.95 A 0.5 0.5 0 0 0 303.25 19.45 L 290.25 19.45 A 0.5 0.5 0 0 0 289.75 19.95 L 289.75 32.95 Z M 7.125 50.95 A 0.5 0.5 0 0 0 7.625 51.45 L 20.625 51.45 A 0.5 0.5 0 0 0 21.125 50.95 L 21.125 37.95 A 0.5 0.5 0 0 0 20.625 37.45 L 7.625 37.45 A 0.5 0.5 0 0 0 7.125 37.95 L 7.125 50.95 Z M 33.25 50.95 A 0.5 0.5 0 0 0 33.75 51.45 L 46.75 51.45 A 0.5 0.5 0 0 0 47.25 50.95 L 47.25 37.95 A 0.5 0.5 0 0 0 46.75 37.45 L 33.75 37.45 A 0.5 0.5 0 0 0 33.25 37.95 L 33.25 50.95 Z M 52.25 50.95 A 0.5 0.5 0 0 0 52.75 51.45 L 65.75 51.45 A 0.5 0.5 0 0 0 66.25 50.95 L 66.25 37.95 A 0.5 0.5 0 0 0 65.75 37.45 L 52.75 37.45 A 0.5 0.5 0 0 0 52.25 37.95 L 52.25 50.95 Z M 71.25 50.95 A 0.5 0.5 0 0 0 71.75 51.45 L 84.75 51.45 A 0.5 0.5 0 0 0 85.25 50.95 L 85.25 37.95 A 0.5 0.5 0 0 0 84.75 37.45 L 71.75 37.45 A 0.5 0.5 0 0 0 71.25 37.95 L 71.25 50.95 Z M 90.25 50.95 A 0.5 0.5 0 0 0 90.75 51.45 L 103.75 51.45 A 0.5 0.5 0 0 0 104.25 50.95 L 104.25 37.95 A 0.5 0.5 0 0 0 103.75 37.45 L 90.75 37.45 A 0.5 0.5 0 0 0 90.25 37.95 L 90.25 50.95 Z M 109.25 50.95 A 0.5 0.5 0 0 0 109.75 51.45 L 122.75 51.45 A 0.5 0.5 0 0 0 123.25 50.95 L 123.25 37.95 A 0.5 0.5 0 0 0 122.75 37.45 L 109.75 37.45 A 0.5 0.5 0 0 0 109.25 37.95 L 109.25 50.95 Z M 128.25 50.95 A 0.5 0.5 0 0 0 128.75 51.45 L 141.75 51.45 A 0.5 0.5 0 0 0 142.25 50.95 L 142.25 37.95 A 0.5 0.5 0 0 0 141.75 37.45 L 128.75 37.45 A 0.5 0.5 0 0 0 128.25 37.95 L 128.25 50.95 Z M 147.25 50.95 A 0.5 0.5 0 0 0 147.75 51.45 L 160.75 51.45 A 0.5 0.5 0 0 0 161.25 50.95 L 161.25 37.95 A 0.5 0.5 0 0 0 160.75 37.45 L 147.75 37.45 A 0.5 0.5 0 0 0 147.25 37.95 L 147.25 50.95 Z M 166.25 50.95 A 0.5 0.5 0 0 0 166.75 51.45 L 179.75 51.45 A 0.5 0.5 0 0 0 180.25 50.95 L 180.25 37.95 A 0.5 0.5 0 0 0 179.75 37.45 L 166.75 37.45 A 0.5 0.5 0 0 0 166.25 37.95 L 166.25 50.95 Z M 185.25 50.95 A 0.5 0.5 0 0 0 185.75 51.45 L 198.75 51.45 A 0.5 0.5 0 0 0 199.25 50.95 L 199.25 37.95 A 0.5 0.5 0 0 0 198.75 37.45 L 185.75 37.45 A 0.5 0.5 0 0 0 185.25 37.95 L 185.25 50.95 Z M 204.25 50.95 A 0.5 0.5 0 0 0 204.75 51.45 L 217.75 51.45 A 0.5 0.5 0 0 0 218.25 50.95 L 218.25 37.95 A 0.5 0.5 0 0 0 217.75 37.45 L 204.75 37.45 A 0.5 0.5 0 0 0 204.25 37.95 L 204.25 50.95 Z M 223.25 50.95 A 0.5 0.5 0 0 0 223.75 51.45 L 236.75 51.45 A 0.5 0.5 0 0 0 237.25 50.95 L 237.25 37.95 A 0.5 0.5 0 0 0 236.75 37.45 L 223.75 37.45 A 0.5 0.5 0 0 0 223.25 37.95 L 223.25 50.95 Z M 254.125 50.95 A 0.5 0.5 0 0 0 254.625 51.45 L 267.625 51.45 A 0.5 0.5 0 0 0 268.125 50.95 L 268.125 37.95 A 0.5 0.5 0 0 0 267.625 37.45 L 254.625 37.45 A 0.5 0.5 0 0 0 254.125 37.95 L 254.125 50.95 Z M 289.75 50.95 A 0.5 0.5 0 0 0 290.25 51.45 L 303.25 51.45 A 0.5 0.5 0 0 0 303.75 50.95 L 303.75 37.95 A 0.5 0.5 0 0 0 303.25 37.45 L 290.25 37.45 A 0.5 0.5 0 0 0 289.75 37.95 L 289.75 50.95 Z M 11.875 68.95 A 0.5 0.5 0 0 0 12.375 69.45 L 25.375 69.45 A 0.5 0.5 0 0 0 25.875 68.95 L 25.875 55.95 A 0.5 0.5 0 0 0 25.375 55.45 L 12.375 55.45 A 0.5 0.5 0 0 0 11.875 55.95 L 11.875 68.95 Z M 42.75 68.95 A 0.5 0.5 0 0 0 43.25 69.45 L 56.25 69.45 A 0.5 0.5 0 0 0 56.75 68.95 L 56.75 55.95 A 0.5 0.5 0 0 0 56.25 55.45 L 43.25 55.45 A 0.5 0.5 0 0 0 42.75 55.95 L 42.75 68.95 Z M 61.75 68.95 A 0.5 0.5 0 0 0 62.25 69.45 L 75.25 69.45 A 0.5 0.5 0 0 0 75.75 68.95 L 75.75 55.95 A 0.5 0.5 0 0 0 75.25 55.45 L 62.25 55.45 A 0.5 0.5 0 0 0 61.75 55.95 L 61.75 68.95 Z M 80.75 68.95 A 0.5 0.5 0 0 0 81.25 69.45 L 94.25 69.45 A 0.5 0.5 0 0 0 94.75 68.95 L 94.75 55.95 A 0.5 0.5 0 0 0 94.25 55.45 L 81.25 55.45 A 0.5 0.5 0 0 0 80.75 55.95 L 80.75 68.95 Z M 99.75 68.95 A 0.5 0.5 0 0 0 100.25 69.45 L 113.25 69.45 A 0.5 0.5 0 0 0 113.75 68.95 L 113.75 55.95 A 0.5 0.5 0 0 0 113.25 55.45 L 100.25 55.45 A 0.5 0.5 0 0 0 99.75 55.95 L 99.75 68.95 Z M 118.75 68.95 A 0.5 0.5 0 0 0 119.25 69.45 L 132.25 69.45 A 0.5 0.5 0 0 0 132.75 68.95 L 132.75 55.95 A 0.5 0.5 0 0 0 132.25 55.45 L 119.25 55.45 A 0.5 0.5 0 0 0 118.75 55.95 L 118.75 68.95 Z M 137.75 68.95 A 0.5 0.5 0 0 0 138.25 69.45 L 151.25 69.45 A 0.5 0.5 0 0 0 151.75 68.95 L 151.75 55.95 A 0.5 0.5 0 0 0 151.25 55.45 L 138.25 55.45 A 0.5 0.5 0 0 0 137.75 55.95 L 137.75 68.95 Z M 156.75 68.95 A 0.5 0.5 0 0 0 157.25 69.45 L 170.25 69.45 A 0.5 0.5 0 0 0 170.75 68.95 L 170.75 55.95 A 0.5 0.5 0 0 0 170.25 55.45 L 157.25 55.45 A 0.5 0.5 0 0 0 156.75 55.95 L 156.75 68.95 Z M 175.75 68.95 A 0.5 0.5 0 0 0 176.25 69.45 L 189.25 69.45 A 0.5 0.5 0 0 0 189.75 68.95 L 189.75 55.95 A 0.5 0.5 0 0 0 189.25 55.45 L 176.25 55.45 A 0.5 0.5 0 0 0 175.75 55.95 L 175.75 68.95 Z M 194.75 68.95 A 0.5 0.5 0 0 0 195.25 69.45 L 208.25 69.45 A 0.5 0.5 0 0 0 208.75 68.95 L 208.75 55.95 A 0.5 0.5 0 0 0 208.25 55.45 L 195.25 55.45 A 0.5 0.5 0 0 0 194.75 55.95 L 194.75 68.95 Z M 213.75 68.95 A 0.5 0.5 0 0 0 214.25 69.45 L 227.25 69.45 A 0.5 0.5 0 0 0 227.75 68.95 L 227.75 55.95 A 0.5 0.5 0 0 0 227.25 55.45 L 214.25 55.45 A 0.5 0.5 0 0 0 213.75 55.95 L 213.75 68.95 Z M 237.5 68.95 A 0.5 0.5 0 0 0 238 69.45 L 251 69.45 A 0.5 0.5 0 0 0 251.5 68.95 L 251.5 55.95 A 0.5 0.5 0 0 0 251 55.45 L 238 55.45 A 0.5 0.5 0 0 0 237.5 55.95 L 237.5 68.95 Z M 289.75 68.95 A 0.5 0.5 0 0 0 290.25 69.45 L 303.25 69.45 A 0.5 0.5 0 0 0 303.75 68.95 L 303.75 55.95 A 0.5 0.5 0 0 0 303.25 55.45 L 290.25 55.45 A 0.5 0.5 0 0 0 289.75 55.95 L 289.75 68.95 Z M 266 73.45 A 0.5 0.5 0 0 0 266.5 73.95 L 279.5 73.95 A 0.5 0.5 0 0 0 280 73.45 L 280 60.45 A 0.5 0.5 0 0 0 279.5 59.95 L 266.5 59.95 A 0.5 0.5 0 0 0 266 60.45 L 266 73.45 Z M 2.375 86.95 A 0.5 0.5 0 0 0 2.875 87.45 L 15.875 87.45 A 0.5 0.5 0 0 0 16.375 86.95 L 16.375 73.95 A 0.5 0.5 0 0 0 15.875 73.45 L 2.875 73.45 A 0.5 0.5 0 0 0 2.375 73.95 L 2.375 86.95 Z M 26.125 86.95 A 0.5 0.5 0 0 0 26.625 87.45 L 39.625 87.45 A 0.5 0.5 0 0 0 40.125 86.95 L 40.125 73.95 A 0.5 0.5 0 0 0 39.625 73.45 L 26.625 73.45 A 0.5 0.5 0 0 0 26.125 73.95 L 26.125 86.95 Z M 49.875 86.95 A 0.5 0.5 0 0 0 50.375 87.45 L 63.375 87.45 A 0.5 0.5 0 0 0 63.875 86.95 L 63.875 73.95 A 0.5 0.5 0 0 0 63.375 73.45 L 50.375 73.45 A 0.5 0.5 0 0 0 49.875 73.95 L 49.875 86.95 Z M 121.125 86.95 A 0.5 0.5 0 0 0 121.625 87.45 L 134.625 87.45 A 0.5 0.5 0 0 0 135.125 86.95 L 135.125 73.95 A 0.5 0.5 0 0 0 134.625 73.45 L 121.625 73.45 A 0.5 0.5 0 0 0 121.125 73.95 L 121.125 86.95 Z M 192.375 86.95 A 0.5 0.5 0 0 0 192.875 87.45 L 205.875 87.45 A 0.5 0.5 0 0 0 206.375 86.95 L 206.375 73.95 A 0.5 0.5 0 0 0 205.875 73.45 L 192.875 73.45 A 0.5 0.5 0 0 0 192.375 73.95 L 192.375 86.95 Z M 218.5 86.95 A 0.5 0.5 0 0 0 219 87.45 L 232 87.45 A 0.5 0.5 0 0 0 232.5 86.95 L 232.5 73.95 A 0.5 0.5 0 0 0 232 73.45 L 219 73.45 A 0.5 0.5 0 0 0 218.5 73.95 L 218.5 86.95 Z M 247 91.45 A 0.5 0.5 0 0 0 247.5 91.95 L 260.5 91.95 A 0.5 0.5 0 0 0 261 91.45 L 261 78.45 A 0.5 0.5 0 0 0 260.5 77.95 L 247.5 77.95 A 0.5 0.5 0 0 0 247 78.45 L 247 91.45 Z M 266 91.45 A 0.5 0.5 0 0 0 266.5 91.95 L 279.5 91.95 A 0.5 0.5 0 0 0 280 91.45 L 280 78.45 A 0.5 0.5 0 0 0 279.5 77.95 L 266.5 77.95 A 0.5 0.5 0 0 0 266 78.45 L 266 91.45 Z M 285 91.45 A 0.5 0.5 0 0 0 285.5 91.95 L 298.5 91.95 A 0.5 0.5 0 0 0 299 91.45 L 299 78.45 A 0.5 0.5 0 0 0 298.5 77.95 L 285.5 77.95 A 0.5 0.5 0 0 0 285 78.45 L 285 91.45 Z M 248.35 11 A 0.5 0.5 0 0 0 248.85 11.5 L 254.15 11.5 A 0.5 0.5 0 0 0 254.65 11 L 254.65 5.15 A 0.5 0.5 0 0 0 254.15 4.65 L 253.3 4.65 L 253.3 0.5 A 0.5 0.5 0 0 0 252.8 0 L 250.2 0 A 0.5 0.5 0 0 0 249.7 0.5 L 249.7 4.65 L 248.85 4.65 A 0.5 0.5 0 0 0 248.35 5.15 L 248.35 11 Z M 272.35 11 A 0.5 0.5 0 0 0 272.85 11.5 L 278.15 11.5 A 0.5 0.5 0 0 0 278.65 11 L 278.65 5.15 A 0.5 0.5 0 0 0 278.15 4.65 L 277.3 4.65 L 277.3 0.5 A 0.5 0.5 0 0 0 276.8 0 L 274.2 0 A 0.5 0.5 0 0 0 273.7 0.5 L 273.7 4.65 L 272.85 4.65 A 0.5 0.5 0 0 0 272.35 5.15 L 272.35 11 Z M 245.975 47 A 0.5 0.5 0 0 0 246.475 47.5 L 251.775 47.5 A 0.5 0.5 0 0 0 252.275 47 L 252.275 41.15 A 0.5 0.5 0 0 0 251.775 40.65 L 250.925 40.65 L 250.925 36.5 A 0.5 0.5 0 0 0 250.425 36 L 247.825 36 A 0.5 0.5 0 0 0 247.325 36.5 L 247.325 40.65 L 246.475 40.65 A 0.5 0.5 0 0 0 245.975 41.15 L 245.975 47 Z M 269.975 47 A 0.5 0.5 0 0 0 270.475 47.5 L 275.775 47.5 A 0.5 0.5 0 0 0 276.275 47 L 276.275 41.15 A 0.5 0.5 0 0 0 275.775 40.65 L 274.925 40.65 L 274.925 36.5 A 0.5 0.5 0 0 0 274.425 36 L 271.825 36 A 0.5 0.5 0 0 0 271.325 36.5 L 271.325 40.65 L 270.475 40.65 A 0.5 0.5 0 0 0 269.975 41.15 L 269.975 47 Z M 3.725 65 A 0.5 0.5 0 0 0 4.225 65.5 L 9.525 65.5 A 0.5 0.5 0 0 0 10.025 65 L 10.025 59.15 A 0.5 0.5 0 0 0 9.525 58.65 L 8.675 58.65 L 8.675 54.5 A 0.5 0.5 0 0 0 8.175 54 L 5.575 54 A 0.5 0.5 0 0 0 5.075 54.5 L 5.075 58.65 L 4.225 58.65 A 0.5 0.5 0 0 0 3.725 59.15 L 3.725 65 Z M 27.725 65 A 0.5 0.5 0 0 0 28.225 65.5 L 33.525 65.5 A 0.5 0.5 0 0 0 34.025 65 L 34.025 59.15 A 0.5 0.5 0 0 0 33.525 58.65 L 32.675 58.65 L 32.675 54.5 A 0.5 0.5 0 0 0 32.175 54 L 29.575 54 A 0.5 0.5 0 0 0 29.075 54.5 L 29.075 58.65 L 28.225 58.65 A 0.5 0.5 0 0 0 27.725 59.15 L 27.725 65 Z M 74.975 83 A 0.5 0.5 0 0 0 75.475 83.5 L 80.775 83.5 A 0.5 0.5 0 0 0 81.275 83 L 81.275 77.15 A 0.5 0.5 0 0 0 80.775 76.65 L 79.925 76.65 L 79.925 72.5 A 0.5 0.5 0 0 0 79.425 72 L 76.825 72 A 0.5 0.5 0 0 0 76.325 72.5 L 76.325 76.65 L 75.475 76.65 A 0.5 0.5 0 0 0 74.975 77.15 L 74.975 83 Z M 174.975 83 A 0.5 0.5 0 0 0 175.475 83.5 L 180.775 83.5 A 0.5 0.5 0 0 0 181.275 83 L 181.275 77.15 A 0.5 0.5 0 0 0 180.775 76.65 L 179.925 76.65 L 179.925 72.5 A 0.5 0.5 0 0 0 179.425 72 L 176.825 72 A 0.5 0.5 0 0 0 176.325 72.5 L 176.325 76.65 L 175.475 76.65 A 0.5 0.5 0 0 0 174.975 77.15 L 174.975 83 Z" vector-effect="non-scaling-stroke"/></g></svg>