<svg width="288.5mm" height="87.7mm" viewBox="0 0 288.5 87.7" xmlns="http://www.w3.org/2000/svg"><g id="svgGroup" stroke-linecap="round" fill-rule="evenodd" font-size="9pt" stroke="#000" stroke-width="0.25mm" fill="none" style="stroke:#000;stroke-width:0.25mm;fill:none"><path d="M 0 14.95 A 0.5 0.5 0 0 0 0.5 15.45 L 13.5 15.45 A 0.5 0.5 0 0 0 14 14.95 L 14 1.95 A 0.5 0.5 0 0 0 13.5 1.45 L 0.5 1.45 A 0.5 0.5 0 0 0 0 1.95 L 0 14.95 Z M 18 14.95 A 0.5 0.5 0 0 0 18.5 15.45 L 31.5 15.45 A 0.5 0.5 0 0 0 32 14.95 L 32 1.95 A 0.5 0.5 0 0 0 31.5 1.45 L 18.5 1.45 A 0.5 0.5 0 0 0 18 1.95 L 18 14.95 Z M 36 14.95 A 0.5 0.5 0 0 0 36.5 15.45 L 49.5 15.45 A 0.5 0.5 0 0 0 50 14.95 L 50 1.95 A 0.5 0.5 0 0 0 49.5 1.45 L 36.5 1.45 A 0.5 0.5 0 0 0 36 1.95 L 36 14.95 Z M 54 14.95 A 0.5 0.5 0 0 0 54.5 15.45 L 67.5 15.45 A 0.5 0.5 0 0 0 68 14.95 L 68 1.95 A 0.5 0.5 0 0 0 67.5 1.45 L 54.5 1.45 A 0.5 0.5 0 0 0 54 1.95 L 54 14.95 Z M 72 14.95 A 0.5 0.5 0 0 0 72.5 15.45 L 85.5 15.45 A 0.5 0.5 0 0 0 86 14.95 L 86 1.95 A 0.5 0.5 0 0 0 85.5 1.45 L 72.5 1.45 A 0.5 0.5 0 0 0 72 1.95 L 72 14.95 Z M 90 14.95 A 0.5 0.5 0 0 0 90.5 15.45 L 103.5 15.45 A 0.5 0.5 0 0 0 104 14.95 L 104 1.95 A 0.5 0.5 0 0 0 103.5 1.45 L 90.5 1.45 A 0.5 0.5 0 0 0 90 1.95 L 90 14.95 Z M 108 14.95 A 0.5 0.5 0 0 0 108.5 15.45 L 121.5 15.45 A 0.5 0.5 0 0 0 122 14.95 L 122 1.95 A 0.5 0.5 0 0 0 121.5 1.45 L 108.5 1.45 A 0.5 0.5 0 0 0 108 1.95 L 108 14.95 Z M 126 14.95 A 0.5 0.5 0 0 0 126.5 15.45 L 139.5 15.45 A 0.5 0.5 0 0 0 140 14.95 L 140 1.95 A 0.5 0.5 0 0 0 139.5 1.45 L 126.5 1.45 A 0.5 0.5 0 0 0 126 1.95 L 126 14.95 Z M 144 14.95 A 0.5 0.5 0 0 0 144.5 15.45 L 157.5 15.45 A 0.5 0.5 0 0 0 158 14.95 L 158 1.95 A 0.5 0.5 0 0 0 157.5 1.45 L 144.5 1.45 A 0.5 0.5 0 0 0 144 1.95 L 144 14.95 Z M 162 14.95 A 0.5 0.5 0 0 0 162.5 15.45 L 175.5 15.45 A 0.5 0.5 0 0 0 176 14.95 L 176 1.95 A 0.5 0.5 0 0 0 175.5 1.45 L 162.5 1.45 A 0.5 0.5 0 0 0 162 1.95 L 162 14.95 Z M 180 14.95 A 0.5 0.5 0 0 0 180.5 15.45 L 193.5 15.45 A 0.5 0.5 0 0 0 194 14.95 L 194 1.95 A 0.5 0.5 0 0 0 193.5 1.45 L 180.5 1.45 A 0.5 0.5 0 0 0 180 1.95 L 180 14.95 Z M 198 14.95 A 0.5 0.5 0 0 0 198.5 15.45 L 211.5 15.45 A 0.5 0.5 0 0 0 212 14.95 L 212 1.95 A 0.5 0.5 0 0 0 211.5 1.45 L 198.5 1.45 A 0.5 0.5 0 0 0 198 1.95 L 198 14.95 Z M 216 14.95 A 0.5 0.5 0 0 0 216.5 15.45 L 229.5 15.45 A 0.5 0.5 0 0 0 230 14.95 L 230 1.95 A 0.5 0.5 0 0 0 229.5 1.45 L 216.5 1.45 A 0.5 0.5 0 0 0 216 1.95 L 216 14.95 Z M 243 14.95 A 0.5 0.5 0 0 0 243.5 15.45 L 256.5 15.45 A 0.5 0.5 0 0 0 257 14.95 L 257 1.95 A 0.5 0.5 0 0 0 256.5 1.45 L 243.5 1.45 A 0.5 0.5 0 0 0 243 1.95 L 243 14.95 Z M 274.5 14.95 A 0.5 0.5 0 0 0 275 15.45 L 288 15.45 A 0.5 0.5 0 0 0 288.5 14.95 L 288.5 1.95 A 0.5 0.5 0 0 0 288 1.45 L 275 1.45 A 0.5 0.5 0 0 0 274.5 1.95 L 274.5 14.95 Z M 4.5 31.95 A 0.5 0.5 0 0 0 5 32.45 L 18 32.45 A 0.5 0.5 0 0 0 18.5 31.95 L 18.5 18.95 A 0.5 0.5 0 0 0 18 18.45 L 5 18.45 A 0.5 0.5 0 0 0 4.5 18.95 L 4.5 31.95 Z M 27 31.95 A 0.5 0.5 0 0 0 27.5 32.45 L 40.5 32.45 A 0.5 0.5 0 0 0 41 31.95 L 41 18.95 A 0.5 0.5 0 0 0 40.5 18.45 L 27.5 18.45 A 0.5 0.5 0 0 0 27 18.95 L 27 31.95 Z M 45 31.95 A 0.5 0.5 0 0 0 45.5 32.45 L 58.5 32.45 A 0.5 0.5 0 0 0 59 31.95 L 59 18.95 A 0.5 0.5 0 0 0 58.5 18.45 L 45.5 18.45 A 0.5 0.5 0 0 0 45 18.95 L 45 31.95 Z M 63 31.95 A 0.5 0.5 0 0 0 63.5 32.45 L 76.5 32.45 A 0.5 0.5 0 0 0 77 31.95 L 77 18.95 A 0.5 0.5 0 0 0 76.5 18.45 L 63.5 18.45 A 0.5 0.5 0 0 0 63 18.95 L 63 31.95 Z M 81 31.95 A 0.5 0.5 0 0 0 81.5 32.45 L 94.5 32.45 A 0.5 0.5 0 0 0 95 31.95 L 95 18.95 A 0.5 0.5 0 0 0 94.5 18.45 L 81.5 18.45 A 0.5 0.5 0 0 0 81 18.95 L 81 31.95 Z M 99 31.95 A 0.5 0.5 0 0 0 99.5 32.45 L 112.5 32.45 A 0.5 0.5 0 0 0 113 31.95 L 113 18.95 A 0.5 0.5 0 0 0 112.5 18.45 L 99.5 18.45 A 0.5 0.5 0 0 0 99 18.95 L 99 31.95 Z M 117 31.95 A 0.5 0.5 0 0 0 117.5 32.45 L 130.5 32.45 A 0.5 0.5 0 0 0 131 31.95 L 131 18.95 A 0.5 0.5 0 0 0 130.5 18.45 L 117.5 18.45 A 0.5 0.5 0 0 0 117 18.95 L 117 31.95 Z M 135 31.95 A 0.5 0.5 0 0 0 135.5 32.45 L 148.5 32.45 A 0.5 0.5 0 0 0 149 31.95 L 149 18.95 A 0.5 0.5 0 0 0 148.5 18.45 L 135.5 18.45 A 0.5 0.5 0 0 0 135 18.95 L 135 31.95 Z M 153 31.95 A 0.5 0.5 0 0 0 153.5 32.45 L 166.5 32.45 A 0.5 0.5 0 0 0 167 31.95 L 167 18.95 A 0.5 0.5 0 0 0 166.5 18.45 L 153.5 18.45 A 0.5 0.5 0 0 0 153 18.95 L 153 31.95 Z M 171 31.95 A 0.5 0.5 0 0 0 171.5 32.45 L 184.5 32.45 A 0.5 0.5 0 0 0 185 31.95 L 185 18.95 A 0.5 0.5 0 0 0 184.5 18.45 L 171.5 18.45 A 0.5 0.5 0 0 0 171 18.95 L 171 31.95 Z M 189 31.95 A 0.5 0.5 0 0 0 189.5 32.45 L 202.5 32.45 A 0.5 0.5 0 0 0 203 31.95 L 203 18.95 A 0.5 0.5 0 0 0 202.5 18.45 L 189.5 18.45 A 0.5 0.5 0 0 0 189 18.95 L 189 31.95 Z M 207 31.95 A 0.5 0.5 0 0 0 207.5 32.45 L 220.5 32.45 A 0.5 0.5 0 0 0 221 31.95 L 221 18.95 A 0.5 0.5 0 0 0 220.5 18.45 L 207.5 18.45 A 0.5 0.5 0 0 0 207 18.95 L 207 31.95 Z M 225 31.95 A 0.5 0.5 0 0 0 225.5 32.45 L 238.5 32.45 A 0.5 0.5 0 0 0 239 31.95 L 239 18.95 A 0.5 0.5 0 0 0 238.5 18.45 L 225.5 18.45 A 0.5 0.5 0 0 0 225 18.95 L 225 31.95 Z M 247.5 31.95 A 0.5 0.5 0 0 0 248 32.45 L 261 32.45 A 0.5 0.5 0 0 0 261.5 31.95 L 261.5 18.95 A 0.5 0.5 0 0 0 261 18.45 L 248 18.45 A 0.5 0.5 0 0 0 247.5 18.95 L 247.5 31.95 Z M 274.5 31.95 A 0.5 0.5 0 0 0 275 32.45 L 288 32.45 A 0.5 0.5 0 0 0 288.5 31.95 L 288.5 18.95 A 0.5 0.5 0 0 0 288 18.45 L 275 18.45 A 0.5 0.5 0 0 0 274.5 18.95 L 274.5 31.95 Z M 6.75 48.95 A 0.5 0.5 0 0 0 7.25 49.45 L 20.25 49.45 A 0.5 0.5 0 0 0 20.75 48.95 L 20.75 35.95 A 0.5 0.5 0 0 0 20.25 35.45 L 7.25 35.45 A 0.5 0.5 0 0 0 6.75 35.95 L 6.75 48.95 Z M 31.5 48.95 A 0.5 0.5 0 0 0 32 49.45 L 45 49.45 A 0.5 0.5 0 0 0 45.5 48.95 L 45.5 35.95 A 0.5 0.5 0 0 0 45 35.45 L 32 35.45 A 0.5 0.5 0 0 0 31.5 35.95 L 31.5 48.95 Z M 49.5 48.95 A 0.5 0.5 0 0 0 50 49.45 L 63 49.45 A 0.5 0.5 0 0 0 63.5 48.95 L 63.5 35.95 A 0.5 0.5 0 0 0 63 35.45 L 50 35.45 A 0.5 0.5 0 0 0 49.5 35.95 L 49.5 48.95 Z M 67.5 48.95 A 0.5 0.5 0 0 0 68 49.45 L 81 49.45 A 0.5 0.5 0 0 0 81.5 48.95 L 81.5 35.95 A 0.5 0.5 0 0 0 81 35.45 L 68 35.45 A 0.5 0.5 0 0 0 67.5 35.95 L 67.5 48.95 Z M 85.5 48.95 A 0.5 0.5 0 0 0 86 49.45 L 99 49.45 A 0.5 0.5 0 0 0 99.5 48.95 L 99.5 35.95 A 0.5 0.5 0 0 0 99 35.45 L 86 35.45 A 0.5 0.5 0 0 0 85.5 35.95 L 85.5 48.95 Z M 103.5 48.95 A 0.5 0.5 0 0 0 104 49.45 L 117 49.45 A 0.5 0.5 0 0 0 117.5 48.95 L 117.5 35.95 A 0.5 0.5 0 0 0 117 35.45 L 104 35.45 A 0.5 0.5 0 0 0 103.5 35.95 L 103.5 48.95 Z M 121.5 48.95 A 0.5 0.5 0 0 0 122 49.45 L 135 49.45 A 0.5 0.5 0 0 0 135.5 48.95 L 135.5 35.95 A 0.5 0.5 0 0 0 135 35.45 L 122 35.45 A 0.5 0.5 0 0 0 121.5 35.95 L 121.5 48.95 Z M 139.5 48.95 A 0.5 0.5 0 0 0 140 49.45 L 153 49.45 A 0.5 0.5 0 0 0 153.5 48.95 L 153.5 35.95 A 0.5 0.5 0 0 0 153 35.45 L 140 35.45 A 0.5 0.5 0 0 0 139.5 35.95 L 139.5 48.95 Z M 157.5 48.95 A 0.5 0.5 0 0 0 158 49.45 L 171 49.45 A 0.5 0.5 0 0 0 171.5 48.95 L 171.5 35.95 A 0.5 0.5 0 0 0 171 35.45 L 158 35.45 A 0.5 0.5 0 0 0 157.5 35.95 L 157.5 48.95 Z M 175.5 48.95 A 0.5 0.5 0 0 0 176 49.45 L 189 49.45 A 0.5 0.5 0 0 0 189.5 48.95 L 189.5 35.95 A 0.5 0.5 0 0 0 189 35.45 L 176 35.45 A 0.5 0.5 0 0 0 175.5 35.95 L 175.5 48.95 Z M 193.5 48.95 A 0.5 0.5 0 0 0 194 49.45 L 207 49.45 A 0.5 0.5 0 0 0 207.5 48.95 L 207.5 35.95 A 0.5 0.5 0 0 0 207 35.45 L 194 35.45 A 0.5 0.5 0 0 0 193.5 35.95 L 193.5 48.95 Z M 211.5 48.95 A 0.5 0.5 0 0 0 212 49.45 L 225 49.45 A 0.5 0.5 0 0 0 225.5 48.95 L 225.5 35.95 A 0.5 0.5 0 0 0 225 35.45 L 212 35.45 A 0.5 0.5 0 0 0 211.5 35.95 L 211.5 48.95 Z M 240.75 48.95 A 0.5 0.5 0 0 0 241.25 49.45 L 254.25 49.45 A 0.5 0.5 0 0 0 254.75 48.95 L 254.75 35.95 A 0.5 0.5 0 0 0 254.25 35.45 L 241.25 35.45 A 0.5 0.5 0 0 0 240.75 35.95 L 240.75 48.95 Z M 274.5 48.95 A 0.5 0.5 0 0 0 275 49.45 L 288 49.45 A 0.5 0.5 0 0 0 288.5 48.95 L 288.5 35.95 A 0.5 0.5 0 0 0 288 35.45 L 275 35.45 A 0.5 0.5 0 0 0 274.5 35.95 L 274.5 48.95 Z M 11.25 65.95 A 0.5 0.5 0 0 0 11.75 66.45 L 24.75 66.45 A 0.5 0.5 0 0 0 25.25 65.95 L 25.25 52.95 A 0.5 0.5 0 0 0 24.75 52.45 L 11.75 52.45 A 0.5 0.5 0 0 0 11.25 52.95 L 11.25 65.95 Z M 40.5 65.95 A 0.5 0.5 0 0 0 41 66.45 L 54 66.45 A 0.5 0.5 0 0 0 54.5 65.95 L 54.5 52.95 A 0.5 0.5 0 0 0 54 52.45 L 41 52.45 A 0.5 0.5 0 0 0 40.5 52.95 L 40.5 65.95 Z M 58.5 65.95 A 0.5 0.5 0 0 0 59 66.45 L 72 66.45 A 0.5 0.5 0 0 0 72.5 65.95 L 72.5 52.95 A 0.5 0.5 0 0 0 72 52.45 L 59 52.45 A 0.5 0.5 0 0 0 58.5 52.95 L 58.5 65.95 Z M 76.5 65.95 A 0.5 0.5 0 0 0 77 66.45 L 90 66.45 A 0.5 0.5 0 0 0 90.5 65.95 L 90.5 52.95 A 0.5 0.5 0 0 0 90 52.45 L 77 52.45 A 0.5 0.5 0 0 0 76.5 52.95 L 76.5 65.95 Z M 94.5 65.95 A 0.5 0.5 0 0 0 95 66.45 L 108 66.45 A 0.5 0.5 0 0 0 108.5 65.95 L 108.5 52.95 A 0.5 0.5 0 0 0 108 52.45 L 95 52.45 A 0.5 0.5 0 0 0 94.5 52.95 L 94.5 65.95 Z M 112.5 65.95 A 0.5 0.5 0 0 0 113 66.45 L 126 66.45 A 0.5 0.5 0 0 0 126.5 65.95 L 126.5 52.95 A 0.5 0.5 0 0 0 126 52.45 L 113 52.45 A 0.5 0.5 0 0 0 112.5 52.95 L 112.5 65.95 Z M 130.5 65.95 A 0.5 0.5 0 0 0 131 66.45 L 144 66.45 A 0.5 0.5 0 0 0 144.5 65.95 L 144.5 52.95 A 0.5 0.5 0 0 0 144 52.45 L 131 52.45 A 0.5 0.5 0 0 0 130.5 52.95 L 130.5 65.95 Z M 148.5 65.95 A 0.5 0.5 0 0 0 149 66.45 L 162 66.45 A 0.5 0.5 0 0 0 162.5 65.95 L 162.5 52.95 A 0.5 0.5 0 0 0 162 52.45 L 149 52.45 A 0.5 0.5 0 0 0 148.5 52.95 L 148.5 65.95 Z M 166.5 65.95 A 0.5 0.5 0 0 0 167 66.45 L 180 66.45 A 0.5 0.5 0 0 0 180.5 65.95 L 180.5 52.95 A 0.5 0.5 0 0 0 180 52.45 L 167 52.45 A 0.5 0.5 0 0 0 166.5 52.95 L 166.5 65.95 Z M 184.5 65.95 A 0.5 0.5 0 0 0 185 66.45 L 198 66.45 A 0.5 0.5 0 0 0 198.5 65.95 L 198.5 52.95 A 0.5 0.5 0 0 0 198 52.45 L 185 52.45 A 0.5 0.5 0 0 0 184.5 52.95 L 184.5 65.95 Z M 202.5 65.95 A 0.5 0.5 0 0 0 203 66.45 L 216 66.45 A 0.5 0.5 0 0 0 216.5 65.95 L 216.5 52.95 A 0.5 0.5 0 0 0 216 52.45 L 203 52.45 A 0.5 0.5 0 0 0 202.5 52.95 L 202.5 65.95 Z M 225 65.95 A 0.5 0.5 0 0 0 225.5 66.45 L 238.5 66.45 A 0.5 0.5 0 0 0 239 65.95 L 239 52.95 A 0.5 0.5 0 0 0 238.5 52.45 L 225.5 52.45 A 0.5 0.5 0 0 0 225 52.95 L 225 65.95 Z M 274.5 65.95 A 0.5 0.5 0 0 0 275 66.45 L 288 66.45 A 0.5 0.5 0 0 0 288.5 65.95 L 288.5 52.95 A 0.5 0.5 0 0 0 288 52.45 L 275 52.45 A 0.5 0.5 0 0 0 274.5 52.95 L 274.5 65.95 Z M 252 70.2 A 0.5 0.5 0 0 0 252.5 70.7 L 265.5 70.7 A 0.5 0.5 0 0 0 266 70.2 L 266 57.2 A 0.5 0.5 0 0 0 265.5 56.7 L 252.5 56.7 A 0.5 0.5 0 0 0 252 57.2 L 252 70.2 Z M 2.25 82.95 A 0.5 0.5 0 0 0 2.75 83.45 L 15.75 83.45 A 0.5 0.5 0 0 0 16.25 82.95 L 16.25 69.95 A 0.5 0.5 0 0 0 15.75 69.45 L 2.75 69.45 A 0.5 0.5 0 0 0 2.25 69.95 L 2.25 82.95 Z M 24.75 82.95 A 0.5 0.5 0 0 0 25.25 83.45 L 38.25 83.45 A 0.5 0.5 0 0 0 38.75 82.95 L 38.75 69.95 A 0.5 0.5 0 0 0 38.25 69.45 L 25.25 69.45 A 0.5 0.5 0 0 0 24.75 69.95 L 24.75 82.95 Z M 47.25 82.95 A 0.5 0.5 0 0 0 47.75 83.45 L 60.75 83.45 A 0.5 0.5 0 0 0 61.25 82.95 L 61.25 69.95 A 0.5 0.5 0 0 0 60.75 69.45 L 47.75 69.45 A 0.5 0.5 0 0 0 47.25 69.95 L 47.25 82.95 Z M 114.75 82.95 A 0.5 0.5 0 0 0 115.25 83.45 L 128.25 83.45 A 0.5 0.5 0 0 0 128.75 82.95 L 128.75 69.95 A 0.5 0.5 0 0 0 128.25 69.45 L 115.25 69.45 A 0.5 0.5 0 0 0 114.75 69.95 L 114.75 82.95 Z M 182.25 82.95 A 0.5 0.5 0 0 0 182.75 83.45 L 195.75 83.45 A 0.5 0.5 0 0 0 196.25 82.95 L 196.25 69.95 A 0.5 0.5 0 0 0 195.75 69.45 L 182.75 69.45 A 0.5 0.5 0 0 0 182.25 69.95 L 182.25 82.95 Z M 207 82.95 A 0.5 0.5 0 0 0 207.5 83.45 L 220.5 83.45 A 0.5 0.5 0 0 0 221 82.95 L 221 69.95 A 0.5 0.5 0 0 0 220.5 69.45 L 207.5 69.45 A 0.5 0.5 0 0 0 207 69.95 L 207 82.95 Z M 234 87.2 A 0.5 0.5 0 0 0 234.5 87.7 L 247.5 87.7 A 0.5 0.5 0 0 0 248 87.2 L 248 74.2 A 0.5 0.5 0 0 0 247.5 73.7 L 234.5 73.7 A 0.5 0.5 0 0 0 234 74.2 L 234 87.2 Z M 252 87.2 A 0.5 0.5 0 0 0 252.5 87.7 L 265.5 87.7 A 0.5 0.5 0 0 0 266 87.2 L 266 74.2 A 0.5 0.5 0 0 0 265.5 73.7 L 252.5 73.7 A 0.5 0.5 0 0 0 252 74.2 L 252 87.2 Z M 270 87.2 A 0.5 0.5 0 0 0 270.5 87.7 L 283.5 87.7 A 0.5 0.5 0 0 0 284 87.2 L 284 74.2 A 0.5 0.5 0 0 0 283.5 73.7 L 270.5 73.7 A 0.5 0.5 0 0 0 270 74.2 L 270 87.2 Z M 234.85 11 A 0.5 0.5 0 0 0 235.35 11.5 L 240.65 11.5 A 0.5 0.5 0 0 0 241.15 11 L 241.15 5.15 A 0.5 0.5 0 0 0 240.65 4.65 L 239.8 4.65 L 239.8 0.5 A 0.5 0.5 0 0 0 239.3 0 L 236.7 0 A 0.5 0.5 0 0 0 236.2 0.5 L 236.2 4.65 L 235.35 4.65 A 0.5 0.5 0 0 0 234.85 5.15 L 234.85 11 Z M 258.85 11 A 0.5 0.5 0 0 0 259.35 11.5 L 264.65 11.5 A 0.5 0.5 0 0 0 265.15 11 L 265.15 5.15 A 0.5 0.5 0 0 0 264.65 4.65 L 263.8 4.65 L 263.8 0.5 A 0.5 0.5 0 0 0 263.3 0 L 260.7 0 A 0.5 0.5 0 0 0 260.2 0.5 L 260.2 4.65 L 259.35 4.65 A 0.5 0.5 0 0 0 258.85 5.15 L 258.85 11 Z M 232.6 45 A 0.5 0.5 0 0 0 233.1 45.5 L 238.4 45.5 A 0.5 0.5 0 0 0 238.9 45 L 238.9 39.15 A 0.5 0.5 0 0 0 238.4 38.65 L 237.55 38.65 L 237.55 34.5 A 0.5 0.5 0 0 0 237.05 34 L 234.45 34 A 0.5 0.5 0 0 0 233.95 34.5 L 233.95 38.65 L 233.1 38.65 A 0.5 0.5 0 0 0 232.6 39.15 L 232.6 45 Z M 256.6 45 A 0.5 0.5 0 0 0 257.1 45.5 L 262.4 45.5 A 0.5 0.5 0 0 0 262.9 45 L 262.9 39.15 A 0.5 0.5 0 0 0 262.4 38.65 L 261.55 38.65 L 261.55 34.5 A 0.5 0.5 0 0 0 261.05 34 L 258.45 34 A 0.5 0.5 0 0 0 257.95 34.5 L 257.95 38.65 L 257.1 38.65 A 0.5 0.5 0 0 0 256.6 39.15 L 256.6 45 Z M 3.1 62 A 0.5 0.5 0 0 0 3.6 62.5 L 8.9 62.5 A 0.5 0.5 0 0 0 9.4 62 L 9.4 56.15 A 0.5 0.5 0 0 0 8.9 55.65 L 8.05 55.65 L 8.05 51.5 A 0.5 0.5 0 0 0 7.55 51 L 4.95 51 A 0.5 0.5 0 0 0 4.45 51.5 L 4.45 55.65 L 3.6 55.65 A 0.5 0.5 0 0 0 3.1 56.15 L 3.1 62 Z M 27.1 62 A 0.5 0.5 0 0 0 27.6 62.5 L 32.9 62.5 A 0.5 0.5 0 0 0 33.4 62 L 33.4 56.15 A 0.5 0.5 0 0 0 32.9 55.65 L 32.05 55.65 L 32.05 51.5 A 0.5 0.5 0 0 0 31.55 51 L 28.95 51 A 0.5 0.5 0 0 0 28.45 51.5 L 28.45 55.65 L 27.6 55.65 A 0.5 0.5 0 0 0 27.1 56.15 L 27.1 62 Z M 68.6 79 A 0.5 0.5 0 0 0 69.1 79.5 L 74.4 79.5 A 0.5 0.5 0 0 0 74.9 79 L 74.9 73.15 A 0.5 0.5 0 0 0 74.4 72.65 L 73.55 72.65 L 73.55 68.5 A 0.5 0.5 0 0 0 73.05 68 L 70.45 68 A 0.5 0.5 0 0 0 69.95 68.5 L 69.95 72.65 L 69.1 72.65 A 0.5 0.5 0 0 0 68.6 73.15 L 68.6 79 Z M 168.6 79 A 0.5 0.5 0 0 0 169.1 79.5 L 174.4 79.5 A 0.5 0.5 0 0 0 174.9 79 L 174.9 73.15 A 0.5 0.5 0 0 0 174.4 72.65 L 173.55 72.65 L 173.55 68.5 A 0.5 0.5 0 0 0 173.05 68 L 170.45 68 A 0.5 0.5 0 0 0 169.95 68.5 L 169.95 72.65 L 169.1 72.65 A 0.5 0.5 0 0 0 168.6 73.15 L 168.6 79 Z" vector-effect="non-scaling-stroke"/></g></svg>